<svg xmlns="http://www.w3.org/2000/svg" width="262" height="262" viewBox="0 0 262 262"><title>ChatterBox Logo</title><g id="TEXTS"><path d="M232.33,98.08c0-28.42-45.08-50.67-102.63-50.67S27.08,69.66,27.08,98.08c0,11.36,7.06,21.91,20.47,30.68L31.7,160A3.77,3.77,0,0,0,37,164.94l39.43-23.39c16,4.73,34.39,7.22,53.29,7.22a197.73,197.73,0,0,0,44.64-5l13.3,14.2a3.73,3.73,0,0,0,2.75,1.2,3.78,3.78,0,0,0,3.64-4.78l-4.17-15.11C216.54,129.9,232.33,114.67,232.33,98.08Zm-70.78,21a3.78,3.78,0,0,0-2.76-1.2,4,4,0,0,0-.76.08,143.09,143.09,0,0,1-28.33,2.71c-36.13,0-61.31-11.92-61.31-22.62S93.57,75.47,129.7,75.47,191,87.39,191,98.08c0,4.66-4.86,9.65-13.35,13.68a3.79,3.79,0,0,0-2,4.41l7,25.53ZM187.85,132l-4.11-14.9c12.17-6.6,14.82-13.92,14.82-19.06,0-17.19-29.6-30.15-68.86-30.15s-68.85,13-68.85,30.15,29.6,30.17,68.85,30.17a151.1,151.1,0,0,0,27.77-2.46l10.88,11.62a193,193,0,0,1-38.65,3.82c-18.8,0-37-2.55-52.67-7.37a3.77,3.77,0,0,0-3,.36L44.3,151.83l11.54-22.74a3.77,3.77,0,0,0-1.44-5c-12.75-7.57-19.78-16.82-19.78-26.06C34.62,74.7,78.16,55,129.7,55s95.09,19.75,95.09,43.13C224.79,111.24,211.08,123.76,187.85,132Zm-34.74-34.7a5.17,5.17,0,1,1,5.16,5.17A5.16,5.16,0,0,1,153.11,97.34Zm-27.68,0a5.17,5.17,0,1,1,5.17,5.17A5.17,5.17,0,0,1,125.43,97.34Zm-27.67,0a5.17,5.17,0,1,1,5.17,5.17A5.17,5.17,0,0,1,97.76,97.34Z" fill="#bc2a50"/><path d="M28.83,170.57a6.12,6.12,0,0,1,2.44.5,6.37,6.37,0,0,1,3.36,3.36,6,6,0,0,1,.5,2.44v6.29h-6.3v-6.29H22.54V202h6.29v-6.29h6.3V202a6.25,6.25,0,0,1-.5,2.46,6.13,6.13,0,0,1-1.35,2,6.52,6.52,0,0,1-2,1.33,6.12,6.12,0,0,1-2.44.5H22.54a6,6,0,0,1-2.43-.5,6.29,6.29,0,0,1-2-1.33,6,6,0,0,1-1.36-2,6.25,6.25,0,0,1-.5-2.46V176.87a6,6,0,0,1,.5-2.44,6.28,6.28,0,0,1,1.36-2,6.21,6.21,0,0,1,2-1.36,6,6,0,0,1,2.43-.5Z" fill="#fff"/><path d="M52.41,186.22V170.57h6.3V208.3h-6.3V192.47H46.12V208.3h-6.3V170.57h6.3v15.65Z" fill="#fff"/><path d="M76,170.57a6.11,6.11,0,0,1,2.43.5,6.43,6.43,0,0,1,3.37,3.36,6,6,0,0,1,.49,2.44V208.3H76V194.55h-6.3V208.3H63.4V176.87a6,6,0,0,1,.49-2.44,6.28,6.28,0,0,1,1.36-2,6.43,6.43,0,0,1,2-1.36,6.11,6.11,0,0,1,2.43-.5Zm-6.3,6.3V188.3H76V176.87Z" fill="#fff"/><path d="M87,176.83v-6.26h18.89v6.26h-6.3V208.3H93.27V176.83Z" fill="#fff"/><path d="M110.55,176.83v-6.26h18.88v6.26h-6.29V208.3h-6.3V176.83Z" fill="#fff"/><path d="M140.42,202h6.3v6.3H134.13V170.57h12.59v6.3h-6.3v9.32h6v5.94h-6Z" fill="#fff"/><path d="M170.33,193.88V208.3H164V192.78h-6.29V208.3h-6.3V170.57H164a6,6,0,0,1,2.43.5,6.21,6.21,0,0,1,2,1.36,6.28,6.28,0,0,1,1.36,2,6,6,0,0,1,.49,2.44v8.82a4.43,4.43,0,0,1-3.13,4.08C169.19,190.22,170.24,191.59,170.33,193.88Zm-12.58-17.26v10.12H164V176.62Z" fill="#fff"/><path d="M175,208.3V170.57h12.59a6.11,6.11,0,0,1,2.43.5,6.43,6.43,0,0,1,3.37,3.36,6,6,0,0,1,.49,2.44v7.22a4.44,4.44,0,0,1-3.14,4.08c2,.45,3,1.82,3.14,4.11v9.77a6.1,6.1,0,0,1-.49,2.43,6.28,6.28,0,0,1-1.36,2,6.52,6.52,0,0,1-2,1.33,6.11,6.11,0,0,1-2.43.5Zm6.29-31.68v8.52h6.3v-8.52Zm0,14.56v10.61h6.3V191.18Z" fill="#fff"/><path d="M217.49,202a6.25,6.25,0,0,1-.5,2.46,6,6,0,0,1-1.36,2,6.36,6.36,0,0,1-2,1.33,6.12,6.12,0,0,1-2.44.5H204.9a6,6,0,0,1-2.43-.5,6.29,6.29,0,0,1-2-1.33,6,6,0,0,1-1.36-2,6.25,6.25,0,0,1-.5-2.46V176.87a6,6,0,0,1,.5-2.44,6.28,6.28,0,0,1,1.36-2,6.21,6.21,0,0,1,2-1.36,6,6,0,0,1,2.43-.5h6.29a6.12,6.12,0,0,1,2.44.5,6.46,6.46,0,0,1,3.36,3.36,6,6,0,0,1,.5,2.44Zm-6.3-.25V176.62H204.9v25.13Z" fill="#fff"/><path d="M241.06,208.3h-6.29l-3.14-9.45-3.16,9.45h-6.29l6.29-18.88-6.29-18.85h6.29l3.16,9.39,3.14-9.39h6.29l-6.29,18.85Z" fill="#fff"/></g></svg>